<svg width="113" height="36" viewBox="0 0 113 36" fill="none" xmlns="http://www.w3.org/2000/svg">
<path d="M2.98633 17.4092V5.85156H4.54199V16.8818C4.54199 17.3096 4.5332 17.6699 4.51562 17.9629C4.49805 18.2559 4.46289 18.5547 4.41016 18.8594C4.35742 19.1582 4.27832 19.4043 4.17285 19.5977C4.07324 19.791 3.94141 19.9756 3.77734 20.1514C3.61328 20.333 3.4082 20.4707 3.16211 20.5645C2.92188 20.6641 2.63477 20.7402 2.30078 20.793C1.9668 20.8516 1.58008 20.8809 1.14062 20.8809H0.833008L0.648438 19.6328H1.29883C1.60938 19.6328 1.87012 19.5947 2.08105 19.5186C2.29785 19.4424 2.46484 19.3457 2.58203 19.2285C2.69922 19.1172 2.78711 18.9561 2.8457 18.7451C2.91016 18.5342 2.94824 18.3379 2.95996 18.1562C2.97754 17.9688 2.98633 17.7197 2.98633 17.4092ZM12.6455 11.1426C12.2178 10.627 11.6289 10.3691 10.8789 10.3691C10.1289 10.3691 9.5166 10.6357 9.04199 11.1689C8.56738 11.6963 8.28906 12.4199 8.20703 13.3398H13.2959C13.2959 12.3848 13.0791 11.6523 12.6455 11.1426ZM11.1689 19.2021C9.76855 19.2021 8.66406 18.7568 7.85547 17.8662C7.05273 16.9756 6.65137 15.7568 6.65137 14.21C6.65137 12.7158 7.04102 11.5059 7.82031 10.5801C8.59961 9.64844 9.625 9.17383 10.8965 9.15625C12.0918 9.15625 13.0381 9.56641 13.7354 10.3867C14.4385 11.2012 14.79 12.291 14.79 13.6562C14.79 13.7266 14.7871 13.8555 14.7812 14.043C14.7812 14.2305 14.7812 14.3652 14.7812 14.4473H8.16309C8.18066 15.543 8.46191 16.3984 9.00684 17.0137C9.55762 17.623 10.2959 17.9277 11.2217 17.9277C12.2412 17.9277 13.2637 17.6582 14.2891 17.1191L14.5176 18.3057C13.5391 18.9033 12.4229 19.2021 11.1689 19.2021ZM25.1523 19C23.7988 14.6758 22.9609 11.9834 22.6387 10.9229C22.457 11.5674 22.249 12.2646 22.0146 13.0146C21.7803 13.7646 21.5752 14.4092 21.3994 14.9482C21.2236 15.4873 20.9951 16.1846 20.7139 17.04C20.4326 17.8955 20.2188 18.5488 20.0723 19H18.4902L15.7393 9.3584H17.2598L19.3252 17.251C19.6123 16.3135 20.4561 13.6826 21.8564 9.3584H23.5176C24.9121 13.7764 25.7324 16.3984 25.9785 17.2246L28.0176 9.3584H29.5205L26.7432 19H25.1523ZM36.4111 11.1426C35.9834 10.627 35.3945 10.3691 34.6445 10.3691C33.8945 10.3691 33.2822 10.6357 32.8076 11.1689C32.333 11.6963 32.0547 12.4199 31.9727 13.3398H37.0615C37.0615 12.3848 36.8447 11.6523 36.4111 11.1426ZM34.9346 19.2021C33.5342 19.2021 32.4297 18.7568 31.6211 17.8662C30.8184 16.9756 30.417 15.7568 30.417 14.21C30.417 12.7158 30.8066 11.5059 31.5859 10.5801C32.3652 9.64844 33.3906 9.17383 34.6621 9.15625C35.8574 9.15625 36.8037 9.56641 37.501 10.3867C38.2041 11.2012 38.5557 12.291 38.5557 13.6562C38.5557 13.7266 38.5527 13.8555 38.5469 14.043C38.5469 14.2305 38.5469 14.3652 38.5469 14.4473H31.9287C31.9463 15.543 32.2275 16.3984 32.7725 17.0137C33.3232 17.623 34.0615 17.9277 34.9873 17.9277C36.0068 17.9277 37.0293 17.6582 38.0547 17.1191L38.2832 18.3057C37.3047 18.9033 36.1885 19.2021 34.9346 19.2021ZM43.1875 19.1758C42.25 19.1758 41.585 18.9238 41.1924 18.4199C40.8057 17.916 40.6123 17.04 40.6123 15.792V5.61426L42.0713 5.52637V15.2119C42.0713 15.6104 42.0742 15.9297 42.0801 16.1699C42.0918 16.4102 42.1152 16.6475 42.1504 16.8818C42.1855 17.1104 42.2324 17.2832 42.291 17.4004C42.3496 17.5176 42.4346 17.626 42.5459 17.7256C42.6572 17.8193 42.7891 17.8838 42.9414 17.9189C43.0996 17.9482 43.293 17.9629 43.5215 17.9629C43.709 17.9629 44.0781 17.9277 44.6289 17.8574L44.708 19.0264C44.1045 19.126 43.5977 19.1758 43.1875 19.1758ZM51.9678 19H50.4473V6.00098H51.9678V19ZM60.8271 7.11719C59.8486 7.11719 59.0049 7.35449 58.2959 7.8291C57.5928 8.30371 57.0684 8.94238 56.7227 9.74512C56.377 10.5479 56.2041 11.4707 56.2041 12.5137C56.2041 13.293 56.2979 14.0049 56.4854 14.6494C56.6729 15.2881 56.9541 15.8506 57.3291 16.3369C57.7041 16.8174 58.1904 17.1924 58.7881 17.4619C59.3916 17.7256 60.083 17.8574 60.8623 17.8574C61.8643 17.8574 62.9014 17.5967 63.9736 17.0752L64.2285 18.3672C63.3555 18.918 62.1748 19.1934 60.6865 19.1934C59.708 19.1934 58.8291 19.0322 58.0498 18.71C57.2764 18.3818 56.6348 17.9219 56.125 17.3301C55.6211 16.7324 55.2373 16.0234 54.9736 15.2031C54.71 14.377 54.5781 13.46 54.5781 12.4521C54.5781 11.4795 54.7217 10.583 55.0088 9.7627C55.2959 8.94238 55.7002 8.23926 56.2217 7.65332C56.749 7.06152 57.4053 6.60156 58.1904 6.27344C58.9756 5.94531 59.8486 5.78125 60.8096 5.78125C62.2686 5.78125 63.499 6.10352 64.501 6.74805L63.9033 7.9873C62.9424 7.40723 61.917 7.11719 60.8271 7.11719ZM70.5215 19H68.9922V7.3457H64.9932V6.00098H74.5205V7.3457H70.5215V19ZM90.6484 19H89.1279V12.918H82.1494V19H80.6289V6.00098H82.1494V11.582H89.1279V6.00098H90.6484V19ZM93.1006 15.7832V9.3584H94.5771V15.8008C94.5771 16.2227 94.6357 16.5801 94.7529 16.873C94.876 17.166 95.0488 17.3945 95.2715 17.5586C95.5 17.7168 95.7549 17.8311 96.0361 17.9014C96.3232 17.9717 96.6514 18.0068 97.0205 18.0068C97.7822 18.0068 98.374 17.8398 98.7959 17.5059C99.2236 17.1719 99.4375 16.6035 99.4375 15.8008V9.3584H100.914V15.7832C100.914 16.2754 100.844 16.7178 100.703 17.1104C100.562 17.5029 100.372 17.8311 100.132 18.0947C99.8975 18.3525 99.6133 18.5664 99.2793 18.7363C98.9453 18.9062 98.5908 19.0293 98.2158 19.1055C97.8467 19.1816 97.4482 19.2197 97.0205 19.2197C96.5986 19.2197 96.2002 19.1816 95.8252 19.1055C95.4502 19.0293 95.0928 18.9062 94.7529 18.7363C94.4189 18.5605 94.1289 18.3438 93.8828 18.0859C93.6426 17.8223 93.4521 17.4941 93.3115 17.1016C93.1709 16.709 93.1006 16.2695 93.1006 15.7832ZM107.488 10.3779C106.557 10.3779 105.842 10.7002 105.344 11.3447C104.852 11.9834 104.605 12.9238 104.605 14.166C104.605 16.709 105.563 17.9805 107.479 17.9805C107.954 17.9805 108.37 17.8838 108.728 17.6904C109.091 17.4912 109.375 17.2158 109.58 16.8643C109.791 16.5068 109.946 16.1055 110.046 15.6602C110.151 15.2148 110.204 14.7197 110.204 14.1748C110.204 13.4365 110.116 12.792 109.94 12.2412C109.771 11.6904 109.478 11.2422 109.062 10.8965C108.646 10.5508 108.121 10.3779 107.488 10.3779ZM107.638 9.15625C108.493 9.15625 109.231 9.37305 109.853 9.80664C110.474 10.2402 110.939 10.8291 111.25 11.5732C111.561 12.3174 111.716 13.1699 111.716 14.1309C111.716 15.127 111.561 16.0029 111.25 16.7588C110.945 17.5146 110.479 18.1123 109.853 18.5518C109.231 18.9854 108.487 19.2021 107.62 19.2021C106.981 19.2021 106.398 19.0645 105.871 18.7891C105.344 18.5137 104.904 18.1387 104.553 17.6641L104.403 19H103.146V5.61426L104.614 5.52637V8.7168C104.614 9.50195 104.603 10.1758 104.579 10.7383C104.919 10.252 105.358 9.86816 105.897 9.58691C106.442 9.2998 107.022 9.15625 107.638 9.15625Z" fill="black"/>
</svg>
